# xmcd
#
# Track frame offsets:
#	150
#	12869
#	21949
#	36343
#	53371
#	70668
#	92129
#	107259
#	124380
#	139805
#
# Disc length: 2060 seconds
#
# Revision: 0
# Processed by: cddbd v1.5.2PL0 Copyright (c) Steve Scherf et al.
# Submitted via: dBpowerAMP V4.0
#
DISCID=7c080a0a
DTITLE=Gun Street Girls - Gun Street Girls
DYEAR=2009
DGENRE=Blues
TTITLE0=How I Roll
TTITLE1=One Slip Away
TTITLE2=The Mission
TTITLE3=Right under the Wind
TTITLE4=Half Way To The Grave
TTITLE5=The May Disease
TTITLE6=Milennium Man
TTITLE7=Slight Is The Hand Of Love
TTITLE8=Party in Hell
TTITLE9=The Borderline
EXTD=Gun Street Girls
EXTT0=
EXTT1=
EXTT2=
EXTT3=
EXTT4=
EXTT5=
EXTT6=
EXTT7=
EXTT8=
EXTT9=
PLAYORDER=
